<svg xmlns="http://www.w3.org/2000/svg" viewBox="0 0 600 460" fill="none" xmlns:c2pa="http://c2pa.org/manifest"><metadata><c2pa:manifest>AAAWgmp1bWIAAAAeanVtZGMycGEAEQAQgAAAqgA4m3EDYzJwYQAAABZcanVtYgAAAEdqdW1kYzJtYQARABCAAACqADibcQN1cm46YzJwYTo5NWQwYjMyYi04MGI4LTQzOTQtOThhMi1mMjZhYTRiNTg5ZmUAAAADl2p1bWIAAAApanVtZGMyYXMAEQAQgAAAqgA4m3EDYzJwYS5hc3NlcnRpb25zAAAAALxqdW1iAAAARGp1bWRjYm9yABEAEIAAAKoAOJtxE2MycGEuaW5ncmVkaWVudC52MwAAAAAYYzJzaA0GmLpBN6waqsqDP6snZUgAAABwY2JvcqNpZGM6Zm9ybWF0bWltYWdlL3N2Zyt4bWxqaW5zdGFuY2VJRHgseG1wOmlpZDpmMzcwNjI4Yy00MjViLTQzY2EtOTE0OC05MWUxYWQ1Y2E2MmRscmVsYXRpb25zaGlwaHBhcmVudE9mAAAB4mp1bWIAAABBanVtZGNib3IAEQAQgAAAqgA4m3ETYzJwYS5hY3Rpb25zLnYyAAAAABhjMnNoqGBcr4xzWjxVLzntZ5apGAAAAZljYm9yomdhY3Rpb25zgqJmYWN0aW9ua2MycGEub3BlbmVkanBhcmFtZXRlcnOha2luZ3JlZGllbnRzgaJjdXJseC1zZWxmI2p1bWJmPWMycGEuYXNzZXJ0aW9ucy9jMnBhLmluZ3JlZGllbnQudjNkaGFzaFgg1v6JtDsFJQc9M5KYhsIGeh0BrMk3j0vK+FYBDGZ3ZmikZmFjdGlvbngdY29tLmFudGhyb3BpYy5jbGF1ZGUucHJvdmlkZWRqcGFyYW1ldGVyc6F4H2NvbS5hbnRocm9waWMub3JpZ2luLWNvbmZpZGVuY2VndW5rbm93bmtkZXNjcmlwdGlvbnhmQ2xhdWRlIHByb3ZpZGVkIHRoaXMgZmlsZSBhdCB0aGUgcmVxdWVzdCBvZiBhIHVzZXIgYW5kIG1heSBoYXZlIGNyZWF0ZWQgb3IgbW9kaWZpZWQgdGhlIGZpbGUgY29udGVudHMubXNvZnR3YXJlQWdlbnShZG5hbWVmQ2xhdWRlcmFsbEFjdGlvbnNJbmNsdWRlZPUAAADIanVtYgAAAEBqdW1kY2JvcgARABCAAACqADibcRNjMnBhLmhhc2guZGF0YQAAAAAYYzJzaGTlF+JWUZzni8WQgLnMlOgAAACAY2JvcqVjYWxnZnNoYTI1NmNwYWRNAAAAAAAAAAAAAAAAAGRoYXNoWCCfqh/sayLpH4uuKV8CU7ciR4Hk/8x5omcCLkSFSrcMQWRuYW1lbmp1bWJmIG1hbmlmZXN0amV4Y2x1c2lvbnOBomVzdGFydBiJZmxlbmd0aBkeBAAAAj5qdW1iAAAAJ2p1bWRjMmNsABEAEIAAAKoAOJtxA2MycGEuY2xhaW0udjIAAAACD2Nib3KlY2FsZ2ZzaGEyNTZpc2lnbmF0dXJleE1zZWxmI2p1bWJmPS9jMnBhL3VybjpjMnBhOjk1ZDBiMzJiLTgwYjgtNDM5NC05OGEyLWYyNmFhNGI1ODlmZS9jMnBhLnNpZ25hdHVyZWppbnN0YW5jZUlEeCx4bXA6aWlkOjZhMGNiYTRmLTNjMDctNDY3ZC04YWI4LWI4NzllYjNjZmU0ZHJjcmVhdGVkX2Fzc2VydGlvbnODomN1cmx4LXNlbGYjanVtYmY9YzJwYS5hc3NlcnRpb25zL2MycGEuaW5ncmVkaWVudC52M2RoYXNoWCDW/om0OwUlBz0zkpiGwgZ6HQGsyTePS8r4VgEMZndmaKJjdXJseCpzZWxmI2p1bWJmPWMycGEuYXNzZXJ0aW9ucy9jMnBhLmFjdGlvbnMudjJkaGFzaFggPA7AkAdgN/sJBZ4Od4lng3MH55NeP/bn8zl/PFzM+a6iY3VybHgpc2VsZiNqdW1iZj1jMnBhLmFzc2VydGlvbnMvYzJwYS5oYXNoLmRhdGFkaGFzaFgg8XYXFdHM2aJem2dIaZA1vVi+cBZ4AQhg6XaatbKNNrF0Y2xhaW1fZ2VuZXJhdG9yX2luZm+jZG5hbWVvQW50aHJvcGljIEZpbGVzZ3ZlcnNpb25lMS4wLjBrc3BlY1ZlcnNpb25lMi40LjAAABA4anVtYgAAAChqdW1kYzJjcwARABCAAACqADibcQNjMnBhLnNpZ25hdHVyZQAAABAIY2JvctKEWQISogEmGCFZAgowggIGMIIBjaADAgECAhRA5aAK7sI50L64g/oGQgU9Z1UTADAKBggqhkjOPQQDAzBJMRcwFQYDVQQKEw5BbnRocm9waWMsIFBCQzEuMCwGA1UEAxMlQW50aHJvcGljIENvbnRlbnQgQ3JlZGVudGlhbHMgUm9vdCBDQTAeFw0yNjA4MDcxODQzNTZaFw0yODA4MDYxOTQzNTZaMEQxFzAVBgNVBAoTDkFudGhyb3BpYywgUEJDMSkwJwYDVQQDEyBBbnRocm9waWMgQ2xhdWRlIENvbnRlbnQgU2lnbmluZzBZMBMGByqGSM49AgEGCCqGSM49AwEHA0IABJh6CmvLUBgFFNU0vUKlOVtE6djd17L5SuwX0LemFisBM3dkd/3cyjxFA3Qo5S46fX0/ihY0VZ7mfb9KF703t5OjWDBWMA4GA1UdDwEB/wQEAwIHgDAVBgNVHSUEDjAMBgorBgEEAYPoXgIBMAwGA1UdEwEB/wQCMAAwHwYDVR0jBBgwFoAUzlHiBIFOZFsj+OPEz5o+nMHXXMIwCgYIKoZIzj0EAwMDZwAwZAIwMXMdFJ4BetLLVY7ORuE9noqbbAZOZn/aArXyTwFAZfKrPzxF2vPoJNf1+UCdg1XGAjBwX1zd9WGqYkqmL5SFqw1QySjr1zJfpJM9+1rdDwSPLMOPOjKuiXjoU/pUUeG9RwmhY3BhZFkNngAAAAAAAAAAAAAAAAAAAAAAAAAAAAAAAAAAAAAAAAAAAAAAAAAAAAAAAAAAAAAAAAAAAAAAAAAAAAAAAAAAAAAAAAAAAAAAAAAAAAAAAAAAAAAAAAAAAAAAAAAAAAAAAAAAAAAAAAAAAAAAAAAAAAAAAAAAAAAAAAAAAAAAAAAAAAAAAAAAAAAAAAAAAAAAAAAAAAAAAAAAAAAAAAAAAAAAAAAAAAAAAAAAAAAAAAAAAAAAAAAAAAAAAAAAAAAAAAAAAAAAAAAAAAAAAAAAAAAAAAAAAAAAAAAAAAAAAAAAAAAAAAAAAAAAAAAAAAAAAAAAAAAAAAAAAAAAAAAAAAAAAAAAAAAAAAAAAAAAAAAAAAAAAAAAAAAAAAAAAAAAAAAAAAAAAAAAAAAAAAAAAAAAAAAAAAAAAAAAAAAAAAAAAAAAAAAAAAAAAAAAAAAAAAAAAAAAAAAAAAAAAAAAAAAAAAAAAAAAAAAAAAAAAAAAAAAAAAAAAAAAAAAAAAAAAAAAAAAAAAAAAAAAAAAAAAAAAAAAAAAAAAAAAAAAAAAAAAAAAAAAAAAAAAAAAAAAAAAAAAAAAAAAAAAAAAAAAAAAAAAAAAAAAAAAAAAAAAAAAAAAAAAAAAAAAAAAAAAAAAAAAAAAAAAAAAAAAAAAAAAAAAAAAAAAAAAAAAAAAAAAAAAAAAAAAAAAAAAAAAAAAAAAAAAAAAAAAAAAAAAAAAAAAAAAAAAAAAAAAAAAAAAAAAAAAAAAAAAAAAAAAAAAAAAAAAAAAAAAAAAAAAAAAAAAAAAAAAAAAAAAAAAAAAAAAAAAAAAAAAAAAAAAAAAAAAAAAAAAAAAAAAAAAAAAAAAAAAAAAAAAAAAAAAAAAAAAAAAAAAAAAAAAAAAAAAAAAAAAAAAAAAAAAAAAAAAAAAAAAAAAAAAAAAAAAAAAAAAAAAAAAAAAAAAAAAAAAAAAAAAAAAAAAAAAAAAAAAAAAAAAAAAAAAAAAAAAAAAAAAAAAAAAAAAAAAAAAAAAAAAAAAAAAAAAAAAAAAAAAAAAAAAAAAAAAAAAAAAAAAAAAAAAAAAAAAAAAAAAAAAAAAAAAAAAAAAAAAAAAAAAAAAAAAAAAAAAAAAAAAAAAAAAAAAAAAAAAAAAAAAAAAAAAAAAAAAAAAAAAAAAAAAAAAAAAAAAAAAAAAAAAAAAAAAAAAAAAAAAAAAAAAAAAAAAAAAAAAAAAAAAAAAAAAAAAAAAAAAAAAAAAAAAAAAAAAAAAAAAAAAAAAAAAAAAAAAAAAAAAAAAAAAAAAAAAAAAAAAAAAAAAAAAAAAAAAAAAAAAAAAAAAAAAAAAAAAAAAAAAAAAAAAAAAAAAAAAAAAAAAAAAAAAAAAAAAAAAAAAAAAAAAAAAAAAAAAAAAAAAAAAAAAAAAAAAAAAAAAAAAAAAAAAAAAAAAAAAAAAAAAAAAAAAAAAAAAAAAAAAAAAAAAAAAAAAAAAAAAAAAAAAAAAAAAAAAAAAAAAAAAAAAAAAAAAAAAAAAAAAAAAAAAAAAAAAAAAAAAAAAAAAAAAAAAAAAAAAAAAAAAAAAAAAAAAAAAAAAAAAAAAAAAAAAAAAAAAAAAAAAAAAAAAAAAAAAAAAAAAAAAAAAAAAAAAAAAAAAAAAAAAAAAAAAAAAAAAAAAAAAAAAAAAAAAAAAAAAAAAAAAAAAAAAAAAAAAAAAAAAAAAAAAAAAAAAAAAAAAAAAAAAAAAAAAAAAAAAAAAAAAAAAAAAAAAAAAAAAAAAAAAAAAAAAAAAAAAAAAAAAAAAAAAAAAAAAAAAAAAAAAAAAAAAAAAAAAAAAAAAAAAAAAAAAAAAAAAAAAAAAAAAAAAAAAAAAAAAAAAAAAAAAAAAAAAAAAAAAAAAAAAAAAAAAAAAAAAAAAAAAAAAAAAAAAAAAAAAAAAAAAAAAAAAAAAAAAAAAAAAAAAAAAAAAAAAAAAAAAAAAAAAAAAAAAAAAAAAAAAAAAAAAAAAAAAAAAAAAAAAAAAAAAAAAAAAAAAAAAAAAAAAAAAAAAAAAAAAAAAAAAAAAAAAAAAAAAAAAAAAAAAAAAAAAAAAAAAAAAAAAAAAAAAAAAAAAAAAAAAAAAAAAAAAAAAAAAAAAAAAAAAAAAAAAAAAAAAAAAAAAAAAAAAAAAAAAAAAAAAAAAAAAAAAAAAAAAAAAAAAAAAAAAAAAAAAAAAAAAAAAAAAAAAAAAAAAAAAAAAAAAAAAAAAAAAAAAAAAAAAAAAAAAAAAAAAAAAAAAAAAAAAAAAAAAAAAAAAAAAAAAAAAAAAAAAAAAAAAAAAAAAAAAAAAAAAAAAAAAAAAAAAAAAAAAAAAAAAAAAAAAAAAAAAAAAAAAAAAAAAAAAAAAAAAAAAAAAAAAAAAAAAAAAAAAAAAAAAAAAAAAAAAAAAAAAAAAAAAAAAAAAAAAAAAAAAAAAAAAAAAAAAAAAAAAAAAAAAAAAAAAAAAAAAAAAAAAAAAAAAAAAAAAAAAAAAAAAAAAAAAAAAAAAAAAAAAAAAAAAAAAAAAAAAAAAAAAAAAAAAAAAAAAAAAAAAAAAAAAAAAAAAAAAAAAAAAAAAAAAAAAAAAAAAAAAAAAAAAAAAAAAAAAAAAAAAAAAAAAAAAAAAAAAAAAAAAAAAAAAAAAAAAAAAAAAAAAAAAAAAAAAAAAAAAAAAAAAAAAAAAAAAAAAAAAAAAAAAAAAAAAAAAAAAAAAAAAAAAAAAAAAAAAAAAAAAAAAAAAAAAAAAAAAAAAAAAAAAAAAAAAAAAAAAAAAAAAAAAAAAAAAAAAAAAAAAAAAAAAAAAAAAAAAAAAAAAAAAAAAAAAAAAAAAAAAAAAAAAAAAAAAAAAAAAAAAAAAAAAAAAAAAAAAAAAAAAAAAAAAAAAAAAAAAAAAAAAAAAAAAAAAAAAAAAAAAAAAAAAAAAAAAAAAAAAAAAAAAAAAAAAAAAAAAAAAAAAAAAAAAAAAAAAAAAAAAAAAAAAAAAAAAAAAAAAAAAAAAAAAAAAAAAAAAAAAAAAAAAAAAAAAAAAAAAAAAAAAAAAAAAAAAAAAAAAAAAAAAAAAAAAAAAAAAAAAAAAAAAAAAAAAAAAAAAAAAAAAAAAAAAAAAAAAAAAAAAAAAAAAAAAAAAAAAAAAAAAAAAAAAAAAAAAAAAAAAAAAAAAAAAAAAAAAAAAAAAAAAAAAAAAAAAAAAAAAAAAAAAAAAAAAAAAAAAAAAAAAAAAAAAAAAAAAAAAAAAAAAAAAAAAAAAAAAAAAAAAAAAAAAAAAAAAAAAAAAAAAAAAAAAAAAAAAAAAAAAAAAAAAAAAAAAAAAAAAAAAAAAAAAAAAAAAAAAAAAAAAAAAAAAAAAAAAAAAAAAAAAAAAAAAAAAAAAAAAAAAAAAAAAAAAAAAAAAAAAAAAAAAAAAAAAAAAAAAAAAAAAAAAAAAAAAAAAAAAAAAAAAAAAAAAAAAAAAAAAAAAAAAAAAAAAAAAAAAAAAAAAAAAAAAAAAAAAAAAAAAAAAAAAAAAAAAAAAAAAAAAAAAAAAAAAAAAAAAAAAAAAAAAAAAAAAAAAAAAAAAAAAAAAAAAAAAAAAAAAAAAAAAAAAAAAAAAAAAAAAAAAAAAAAAAAAAAAAAAAAAAAAAAAAAAAAAAAAAAAAAAAAAAAAAAAAAAAAAAAAAAAAAAAAAAAAAAAAAAAAAAAAAAAAAAAAAAAAAAAAAAAAAAAAAAAAAAAAAAAAAAAAAAAAAAAAAAAAAAAAAAAAAAAAAAAAAAAAAAAAAAAAAAAAAAAAAAAAAAAAAAAAAAAAAAAAAAAAAAAAAAAAAAAAAAAAAAAAAAAAAAAAAAAAAAAAAAAAAAAAAAAAAAAAAAAAAAAAAAAAAAAAAAAAAAAAAAAAAAAAAAAAAAAAAAAAAAAAAAAAAAAAAAAAAAAAAAAAAAAAAAAAAAAAAAAAAAAAAAAAAAAAAAAAAAAAAAAAAAAAAAAAAAAAAAAAAAAAAAAAAAAAAAAAAAAAAAAAAAAAAAAAAAAAAAAAAAAAAAAAAAAAAAAAAAAAAAAAAAAAAAAAAAAAAAAAAAAAAAAAAAAAAAAAAAAAAAAAAAAAAAAAAAAAAAAAAAAAAAAAAAAAAAAAAAAAAAAAAAAAAAAAAAAAAAAAAAAAAAAAAAAAAAAAAAAAAAAAAAAAAAAAAAAAAAAAAAAAAAAAAAAAAAAAAAAAAAAAAAAAAAAAAAAAAAAAAAAAAAAAAAAAAAAAAAAAAAAAAAAAAAAAAAAAAAAAAAAAAAAAAAAAAAAAAAAAAAAAAAAAAAAAAAAAAAAAAAAAAAAAAAAAAAAAAAAAAAAAAAAAAAAAAAAAAAAAAAAAAAAAAAAAAAAAAAAAAAAAAAAAAAAAAAAAAAAAAAAAAAAAAAAAAAAAAAAAAAAAAAAAAAAAAAAAAAAAAAAAAAAAAAAAAAAAAAAAAAAAAAAAAAAAAAAAAAAAAAAAAAAAAAAAAAAAAAAAAAAAAAAAAAAAAAAAAAAAAAAAAAAAAAAAAAAAAAAAAAAAAAAAAAAAAAAAAAAAAAAAAAAAAAAAAAAAAAAAAAAAAAAAAAAAAAAAAAAAAAAAAAAAAAAAAAAAAAAAAAAAAAAAAAAAAAAAAAAAAAAAAAAAAAAAAAAAAAAAAAAAAAAAAAAAAAAAAAAAAAAPZYQCCWEGEgLK12hSt0hBMeY8VfOpxZrcidFx1J4JH0eutYagcOZFcGMh0ZTLFe6AjegEG6wwFJwTRe6fNDCRRkF5I=</c2pa:manifest></metadata>
  <path d="M84 236c-22-92 64-176 164-172 112 4 112 86 196 102 84 16 96 110 36 170-64 62-170 54-260 42C130 368 106 322 84 236z" fill="#E6F6EC"/>
  <circle cx="86" cy="86" r="22" fill="#C6F6D5"/>
  <circle cx="520" cy="392" r="14" fill="#68D391"/>

  <!-- desk -->
  <rect x="170" y="344" width="300" height="12" rx="6" fill="#276749"/>
  <rect x="196" y="356" width="10" height="64" rx="5" fill="#276749"/>
  <rect x="434" y="356" width="10" height="64" rx="5" fill="#276749"/>

  <!-- monitor with portfolio -->
  <rect x="270" y="196" width="180" height="128" rx="10" fill="#2D3748"/>
  <rect x="280" y="206" width="160" height="108" rx="4" fill="#fff"/>
  <rect x="290" y="216" width="50" height="40" rx="5" fill="#FBD38D"/>
  <rect x="346" y="216" width="40" height="40" rx="5" fill="#9AE6B4"/>
  <rect x="392" y="216" width="38" height="40" rx="5" fill="#90CDF4"/>
  <path d="M296 248l12-14 10 10 8-8 8 12z" fill="#ED8936"/>
  <circle cx="366" cy="230" r="7" fill="#38A169"/>
  <rect x="290" y="266" width="90" height="8" rx="4" fill="#2D3748"/>
  <rect x="290" y="282" width="140" height="6" rx="3" fill="#E2E8F0"/>
  <rect x="290" y="294" width="110" height="6" rx="3" fill="#E2E8F0"/>
  <rect x="352" y="324" width="16" height="20" fill="#4A5568"/>
  <rect x="330" y="340" width="60" height="6" rx="3" fill="#4A5568"/>

  <!-- chair -->
  <rect x="168" y="270" width="16" height="90" rx="8" fill="#ED8936"/>

  <!-- seated person -->
  <path d="M184 346c-6-40 4-66 34-72 28 4 38 34 34 72z" fill="#38A169"/>
  <rect x="204" y="236" width="26" height="30" rx="12" fill="#C68642"/>
  <circle cx="217" cy="218" r="26" fill="#C68642"/>
  <path d="M190 216c-2-30 46-38 54-6-6-2-8-6-10-10-8 8-26 12-44 16z" fill="#1A202C"/>
  <path d="M192 210c-4 14 0 26 6 32" stroke="#1A202C" stroke-width="8" stroke-linecap="round"/>
  <circle cx="209" cy="222" r="2.5" fill="#1A202C"/><circle cx="226" cy="222" r="2.5" fill="#1A202C"/>
  <path d="M210 232c4 4 10 4 14 0" stroke="#7B341E" stroke-width="2.5" stroke-linecap="round"/>
  <path d="M244 296c12 10 22 20 38 24" stroke="#C68642" stroke-width="10" stroke-linecap="round"/>
  <rect x="184" y="390" width="70" height="14" rx="7" fill="#2D3748"/>
  <rect x="196" y="346" width="44" height="46" rx="8" fill="#2D3748"/>

  <!-- floating: earnings chart -->
  <g>
    <rect x="48" y="96" width="150" height="104" rx="14" fill="#fff" stroke="#EDF2F7" stroke-width="2"/>
    <rect x="64" y="112" width="56" height="8" rx="4" fill="#2D3748"/>
    <rect x="64" y="126" width="36" height="6" rx="3" fill="#9AE6B4"/>
    <rect x="66" y="168" width="14" height="20" rx="3" fill="#C6F6D5"/>
    <rect x="88" y="158" width="14" height="30" rx="3" fill="#9AE6B4"/>
    <rect x="110" y="148" width="14" height="40" rx="3" fill="#68D391"/>
    <rect x="132" y="136" width="14" height="52" rx="3" fill="#38A169"/>
    <rect x="154" y="124" width="14" height="64" rx="3" fill="#276749"/>
    <path d="M70 160l22-12 22-8 22-14 22-14" stroke="#ED8936" stroke-width="3" stroke-linecap="round" stroke-linejoin="round"/>
  </g>
  <!-- floating: new job match -->
  <g>
    <rect x="404" y="86" width="152" height="68" rx="14" fill="#fff" stroke="#EDF2F7" stroke-width="2"/>
    <circle cx="434" cy="120" r="16" fill="#FEEBC8"/>
    <path d="M427 126v-9h14v9zM431 117v-3h6v3" stroke="#C05621" stroke-width="2.5" stroke-linejoin="round"/>
    <rect x="460" y="106" width="76" height="8" rx="4" fill="#2D3748"/>
    <rect x="460" y="120" width="52" height="6" rx="3" fill="#CBD5E0"/>
    <rect x="460" y="132" width="36" height="12" rx="6" fill="#38A169"/>
    <circle cx="552" cy="88" r="9" fill="#E53E3E"/>
  </g>
  <!-- floating: rating -->
  <g>
    <rect x="474" y="196" width="94" height="52" rx="14" fill="#fff" stroke="#EDF2F7" stroke-width="2"/>
    <path d="M498 214l5 10 11 2-8 8 2 11-10-5-10 5 2-11-8-8 11-2z" fill="#F6AD55"/>
    <rect x="522" y="218" width="32" height="8" rx="4" fill="#2D3748"/>
    <rect x="522" y="232" width="22" height="6" rx="3" fill="#CBD5E0"/>
  </g>
  <!-- floating: invoice paid -->
  <g>
    <rect x="52" y="256" width="120" height="58" rx="14" fill="#fff" stroke="#EDF2F7" stroke-width="2"/>
    <circle cx="80" cy="285" r="15" fill="#C6F6D5"/>
    <text x="80" y="291" text-anchor="middle" font-family="Inter, Arial, sans-serif" font-size="17" font-weight="700" fill="#276749">$</text>
    <rect x="104" y="274" width="50" height="8" rx="4" fill="#2D3748"/>
    <rect x="104" y="288" width="34" height="6" rx="3" fill="#9AE6B4"/>
  </g>
  <path d="M300 130l4 10 10 4-10 4-4 10-4-10-10-4 10-4z" fill="#68D391"/>
  <path d="M236 112l3 7 7 3-7 3-3 7-3-7-7-3 7-3z" fill="#F6AD55"/>
</svg>
